<svg xmlns="http://www.w3.org/2000/svg" viewBox="0 0 298.58 341.75"><defs><style>.cls-1{fill:#407bff;}.cls-10,.cls-11,.cls-12,.cls-2{opacity:0.6;}.cls-10,.cls-12,.cls-3,.cls-8{fill:#fff;}.cls-4{opacity:0.8;}.cls-19,.cls-5{opacity:0.5;}.cls-6{fill:#263238;}.cls-13,.cls-7,.cls-8{opacity:0.1;}.cls-23,.cls-24,.cls-9{opacity:0.2;}.cls-11,.cls-12,.cls-9{isolation:isolate;}.cls-13,.cls-15{fill:#e0e0e0;}.cls-14,.cls-18{opacity:0.3;}.cls-16{fill:#f5f5f5;}.cls-17{fill:#ffc3bd;}.cls-20{fill:#ed893e;}.cls-21{fill:#e4897b;}.cls-22{fill:#ffb573;}.cls-25{fill:#de5753;}.cls-26,.cls-27{fill:none;stroke:#263238;stroke-linecap:round;stroke-linejoin:round;}.cls-26{stroke-width:0.62px;}.cls-27{stroke-width:0.43px;}</style></defs><g id="Graphic_1" data-name="Graphic 1"><path class="cls-1" d="M139.75,96.73h27.74a12.6,12.6,0,0,1,12.56,12.57V135H141.58A12.59,12.59,0,0,1,129,122.45v-15A10.73,10.73,0,0,1,139.75,96.73Z" transform="translate(-129.02 -74.06)"/><polygon class="cls-1" points="51.04 57.29 51.04 68.29 39.54 56.79 51.04 57.29"/><g class="cls-2"><path class="cls-3" d="M139.75,96.73h27.74a12.6,12.6,0,0,1,12.56,12.57V135H141.58A12.59,12.59,0,0,1,129,122.45v-15A10.73,10.73,0,0,1,139.75,96.73Z" transform="translate(-129.02 -74.06)"/><polygon class="cls-3" points="51.04 57.29 51.04 68.29 39.54 56.79 51.04 57.29"/></g><path class="cls-3" d="M163,109c-3.91-3.51-8.49,1.24-8.49,1.24S150,105.47,146,109c-5.59,5,2.53,14,8.5,15.74C160.5,122.93,168.62,114,163,109Z" transform="translate(-129.02 -74.06)"/></g><g id="Graphic_2" data-name="Graphic 2"><path class="cls-1" d="M391.26,146.71a36.33,36.33,0,1,1,36.33-36.33A36.36,36.36,0,0,1,391.26,146.71Zm0-67.65a31.33,31.33,0,1,0,31.33,31.32A31.36,31.36,0,0,0,391.26,79.06Z" transform="translate(-129.02 -74.06)"/><polygon class="cls-1" points="262.71 58.16 244.05 40.22 247.51 36.62 261.79 50.35 280.29 21.56 284.49 24.27 262.71 58.16"/><g class="cls-4"><path class="cls-3" d="M391.26,146.71a36.33,36.33,0,1,1,36.33-36.33A36.36,36.36,0,0,1,391.26,146.71Zm0-67.65a31.33,31.33,0,1,0,31.33,31.32A31.36,31.36,0,0,0,391.26,79.06Z" transform="translate(-129.02 -74.06)"/></g><g class="cls-5"><polygon class="cls-3" points="262.71 58.16 244.05 40.22 247.51 36.62 261.79 50.35 280.29 21.56 284.49 24.27 262.71 58.16"/></g></g><g id="Device"><path class="cls-6" d="M346.91,101.67l-135,.11a15,15,0,0,0-15,15l.24,281.54a15,15,0,0,0,15,15l135-.12a15,15,0,0,0,15-15l-.23-281.54A15,15,0,0,0,346.91,101.67Z" transform="translate(-129.02 -74.06)"/><path class="cls-1" d="M346.5,400.8l-133.62.11a5,5,0,0,1-5-5l-.24-278.4a5,5,0,0,1,5-5l133.61-.11a5,5,0,0,1,5,5l.23,278.4A5,5,0,0,1,346.5,400.8Z" transform="translate(-129.02 -74.06)"/><rect class="cls-7" x="133.64" y="307.43" width="34.05" height="11.44" rx="5"/><rect class="cls-7" x="133.57" y="223.55" width="34.05" height="29.25" rx="5"/><rect class="cls-7" x="91.18" y="223.58" width="34.05" height="29.25" rx="5"/><rect class="cls-7" x="175.96" y="223.51" width="34.05" height="29.25" rx="5"/><rect class="cls-7" x="133.61" y="261.18" width="34.05" height="29.25" rx="5"/><rect class="cls-7" x="91.22" y="261.22" width="34.05" height="29.25" rx="5"/><rect class="cls-7" x="176" y="261.15" width="34.05" height="29.25" rx="5"/><path class="cls-8" d="M351.44,327.86l-.09-96.8C314.88,272.92,247,351.52,208,396.78a5,5,0,0,0,4.92,4.13l75.25-.06Z" transform="translate(-129.02 -74.06)"/><path class="cls-8" d="M207.76,257.56,333.64,112.42l-58.92,0c-15.59,17.83-42.21,48.59-67,77.3Z" transform="translate(-129.02 -74.06)"/><polygon class="cls-8" points="78.8 244.12 222.27 78.7 222.24 43.32 78.77 208.75 78.8 244.12"/><path class="cls-9" d="M83.63,38.41H217.24a5,5,0,0,1,5,5v6.3a0,0,0,0,1,0,0H78.63a0,0,0,0,1,0,0v-6.3A5,5,0,0,1,83.63,38.41Z"/><path class="cls-10" d="M330.71,120.9l-.42-.42-.09-.1-.05,0h0a1.74,1.74,0,0,1-.13-.2h0a2.45,2.45,0,0,1-.32-1.23s0-1.21,0-1.26a2.34,2.34,0,0,0-1.49-2.16s0,0,0-.08h0s0-.05,0-.08h0v-.08a.86.86,0,1,0-1.71,0v.08h0s0,.06,0,.08h0s0,0,0,.07a2.34,2.34,0,0,0-1.49,2.17v1.21a2.49,2.49,0,0,1-.33,1.28h0a2.13,2.13,0,0,1-.17.25l-.09.09-.42.42a.37.37,0,0,0-.08.39.36.36,0,0,0,.33.22h2.34a.85.85,0,0,0,1.48,0h2.34a.36.36,0,0,0,.25-.61Z" transform="translate(-129.02 -74.06)"/><g class="cls-11"><rect class="cls-12" x="223.17" y="117.86" width="2.17" height="2.9" transform="translate(319.6 164.37) rotate(179.95)"/><rect class="cls-12" x="219.63" y="116.89" width="2.17" height="3.87" transform="translate(312.51 163.41) rotate(179.95)"/><rect class="cls-12" x="216.08" y="115.93" width="2.17" height="4.83" transform="translate(305.43 162.44) rotate(179.95)"/><rect class="cls-12" x="212.54" y="114.96" width="2.17" height="5.8" transform="translate(298.34 161.49) rotate(179.95)"/></g><rect class="cls-12" x="206.6" y="42.65" width="1.29" height="2.9"/><rect class="cls-12" x="336.91" y="115.64" width="10.27" height="5.01" transform="translate(555.16 161.95) rotate(179.95)"/><path class="cls-6" d="M286.93,112.46a7.49,7.49,0,1,1-7.49-7.48A7.49,7.49,0,0,1,286.93,112.46Z" transform="translate(-129.02 -74.06)"/><path class="cls-13" d="M283.31,112.46a3.87,3.87,0,1,1-3.87-3.86A3.87,3.87,0,0,1,283.31,112.46Z" transform="translate(-129.02 -74.06)"/><path class="cls-6" d="M284.19,118.35s6.06-5.9,17.38-5.91l-17.39-1Z" transform="translate(-129.02 -74.06)"/><path class="cls-6" d="M274.72,118.36s-6.08-5.89-17.4-5.88l17.39-1Z" transform="translate(-129.02 -74.06)"/><rect class="cls-14" x="98.3" y="83.08" width="115.68" height="167.47" rx="10"/><rect class="cls-3" x="94.94" y="75.96" width="115.68" height="167.47" rx="10"/><path class="cls-15" d="M323.05,170.82a7.18,7.18,0,1,1,7.18-7.18A7.19,7.19,0,0,1,323.05,170.82Zm0-13a5.87,5.87,0,1,0,5.87,5.87A5.87,5.87,0,0,0,323.05,157.77Z" transform="translate(-129.02 -74.06)"/><rect class="cls-15" x="319.3" y="162.99" width="7.5" height="1.3" transform="translate(-150.11 202.3) rotate(-45)"/><rect class="cls-15" x="322.4" y="159.89" width="1.3" height="7.5" transform="translate(-150.11 202.31) rotate(-45)"/><path class="cls-15" d="M306.65,313H258a10,10,0,0,1-10-10h0a10,10,0,0,1,10-10h48.65a10,10,0,0,1,10,10h0A10,10,0,0,1,306.65,313Z" transform="translate(-129.02 -74.06)"/><path class="cls-1" d="M305.58,311.17H256.93a10,10,0,0,1-10-10h0a10,10,0,0,1,10-10h48.65a10,10,0,0,1,10,10h0A10,10,0,0,1,305.58,311.17Z" transform="translate(-129.02 -74.06)"/><path class="cls-3" d="M260.62,305.14l2.83-7.7h1.2l2.82,7.7H266.3L264,298.76l-2.26,6.38Zm1.28-1.9.31-.88h3.61l.31.88Z" transform="translate(-129.02 -74.06)"/><path class="cls-3" d="M271.51,305.27a3.72,3.72,0,0,1-1.95-.5,3.23,3.23,0,0,1-1.26-1.4,5.14,5.14,0,0,1,0-4.16,3.23,3.23,0,0,1,1.26-1.4,3.63,3.63,0,0,1,1.95-.5,3.49,3.49,0,0,1,2.2.65,2.9,2.9,0,0,1,1.07,1.82h-1.22a2,2,0,0,0-.67-1.09,2.17,2.17,0,0,0-1.39-.4,2.42,2.42,0,0,0-1.34.36,2.32,2.32,0,0,0-.87,1,4.34,4.34,0,0,0,0,3.22,2.3,2.3,0,0,0,.87,1,2.5,2.5,0,0,0,1.34.35,2.23,2.23,0,0,0,1.39-.39,1.88,1.88,0,0,0,.67-1.06h1.22a2.88,2.88,0,0,1-1.07,1.79A3.55,3.55,0,0,1,271.51,305.27Z" transform="translate(-129.02 -74.06)"/><path class="cls-3" d="M279.46,305.27a3.71,3.71,0,0,1-1.94-.5,3.25,3.25,0,0,1-1.27-1.4,5.14,5.14,0,0,1,0-4.16,3.25,3.25,0,0,1,1.27-1.4,3.62,3.62,0,0,1,1.94-.5,3.49,3.49,0,0,1,2.2.65,2.85,2.85,0,0,1,1.07,1.82h-1.22a1.93,1.93,0,0,0-.67-1.09,2.17,2.17,0,0,0-1.39-.4,2.42,2.42,0,0,0-1.34.36,2.46,2.46,0,0,0-.87,1,4.34,4.34,0,0,0,0,3.22,2.43,2.43,0,0,0,.87,1,2.5,2.5,0,0,0,1.34.35,2.23,2.23,0,0,0,1.39-.39,1.83,1.83,0,0,0,.67-1.06h1.22a2.83,2.83,0,0,1-1.07,1.79A3.55,3.55,0,0,1,279.46,305.27Z" transform="translate(-129.02 -74.06)"/><path class="cls-3" d="M284,305.14v-7.7h4.86v.9h-3.76v2.47h3.43v.88h-3.43v2.55h3.76v.9Z" transform="translate(-129.02 -74.06)"/><path class="cls-3" d="M290.32,305.14v-7.7H293a3.22,3.22,0,0,1,1.51.31,2,2,0,0,1,.89.82,2.42,2.42,0,0,1,.28,1.18,2.36,2.36,0,0,1-.28,1.15,2,2,0,0,1-.87.84,3.28,3.28,0,0,1-1.53.32h-1.53v3.08Zm1.1-4h1.49a1.65,1.65,0,0,0,1.23-.39,1.41,1.41,0,0,0,.37-1,1.35,1.35,0,0,0-.37-1,1.69,1.69,0,0,0-1.23-.37h-1.49Z" transform="translate(-129.02 -74.06)"/><path class="cls-3" d="M298.61,305.14v-6.8h-2.27v-.9H302v.9h-2.29v6.8Z" transform="translate(-129.02 -74.06)"/><rect class="cls-15" x="122.86" y="183.55" width="55.39" height="3"/><rect class="cls-16" x="122.82" y="204.1" width="55.39" height="3"/><rect class="cls-15" x="111.56" y="190.89" width="77.98" height="5"/></g><g id="Character_2" data-name="Character 2"><circle class="cls-1" cx="150.55" cy="135.31" r="43.16"/><circle class="cls-10" cx="150.55" cy="135.31" r="43.16"/><path class="cls-17" d="M229.7,226.71s-2.33-1.15-3.42-.75-8,7.88-8,8.87,4.46,1.45,5.88,1,6.37-6.17,6.61-6.75Z" transform="translate(-129.02 -74.06)"/><path class="cls-17" d="M226.83,229.47s-2.48-1.11-2.7-2.15c-.15-.73-2.47,0-3.07-.47s-.41-.69-.41-.69c2.93-.53,5.33-2.17,9.13.45Z" transform="translate(-129.02 -74.06)"/><path class="cls-1" d="M230.44,230.94a116.77,116.77,0,0,0,21.56-.53c6.48-1.09,10.3-16.58,10.3-16.58s15.86-30.64-.46-19.73c-2.82,1.53-8.1,11.2-10.28,18.77S249.1,221.48,247,222c-.91.23-15.79,2.67-18.31,3.15Z" transform="translate(-129.02 -74.06)"/><g class="cls-18"><path d="M230.44,230.94a116.77,116.77,0,0,0,21.56-.53c6.48-1.09,10.3-16.58,10.3-16.58s15.86-30.64-.46-19.73c-2.82,1.53-8.1,11.2-10.28,18.77S249.1,221.48,247,222c-.91.23-15.79,2.67-18.31,3.15Z" transform="translate(-129.02 -74.06)"/></g><path class="cls-19" d="M258.54,223.88a51.41,51.41,0,0,0,3.76-10l.19-.36-2.94-5.11Z" transform="translate(-129.02 -74.06)"/><path class="cls-1" d="M299.28,247.76c-1.37-12.08-4.89-43.45-5.3-50.77-.52-9.1-6-9.91-17.6-8.43s-14.72,6.28-17.12,13.09c-2.32,6.56,4.09,21,6.73,48.69a43.14,43.14,0,0,0,33.29-2.58Z" transform="translate(-129.02 -74.06)"/><path class="cls-14" d="M299.28,247.76c-1.37-12.08-4.89-43.45-5.3-50.77-.52-9.1-6-9.91-17.6-8.43s-14.72,6.28-17.12,13.09c-2.32,6.56,4.09,21,6.73,48.69a43.14,43.14,0,0,0,33.29-2.58Z" transform="translate(-129.02 -74.06)"/><path class="cls-17" d="M276.5,175c0,4.65.34,11.39,4,13.62,0,0,.69,4.59-10.81,12.51-5.7-5.43-2.89-9.19-2.89-9.19,4.7-2.38,4.18-4.37,2.68-7.63Z" transform="translate(-129.02 -74.06)"/><path class="cls-9" d="M273.63,178.72l-4.12,5.55a14.73,14.73,0,0,1,.88,2.35c1.83-.72,4.47-3.06,4.48-5.22A5.9,5.9,0,0,0,273.63,178.72Z" transform="translate(-129.02 -74.06)"/><path class="cls-17" d="M280.8,165.93c-.6,7.78-.7,11.08-4.6,15.17-5.86,6.16-15,4.13-16.71-3.56-1.5-6.94-.26-18.54,7.22-21.8a9.88,9.88,0,0,1,13.42,5.39A10.67,10.67,0,0,1,280.8,165.93Z" transform="translate(-129.02 -74.06)"/><path class="cls-6" d="M268.68,168.31c0,.63-.35,1.15-.75,1.17s-.72-.5-.72-1.13.36-1.16.75-1.17S268.66,167.71,268.68,168.31Z" transform="translate(-129.02 -74.06)"/><path class="cls-6" d="M261.71,168.52c0,.64-.35,1.16-.75,1.17s-.72-.5-.72-1.13.36-1.15.76-1.16S261.72,167.89,261.71,168.52Z" transform="translate(-129.02 -74.06)"/><path class="cls-20" d="M263.84,169.6a18.57,18.57,0,0,1-2.28,4.11,2.62,2.62,0,0,0,2.2.36Z" transform="translate(-129.02 -74.06)"/><path class="cls-6" d="M267.07,176.44a5.51,5.51,0,0,1-.91.1.17.17,0,0,1-.18-.17h0a.21.21,0,0,1,.19-.19,5.1,5.1,0,0,0,4-2.07.17.17,0,0,1,.25-.06.17.17,0,0,1,.05.25A5.29,5.29,0,0,1,267.07,176.44Z" transform="translate(-129.02 -74.06)"/><path class="cls-6" d="M271.51,166.79a.34.34,0,0,1-.38-.19,4,4,0,0,0-2.87-1.78.37.37,0,0,1-.31-.42.38.38,0,0,1,.41-.32h0a4.64,4.64,0,0,1,3.42,2.18.38.38,0,0,1-.17.49h0A.21.21,0,0,1,271.51,166.79Z" transform="translate(-129.02 -74.06)"/><path class="cls-6" d="M259.68,165.28a.36.36,0,0,1-.35-.12.4.4,0,0,1,.06-.53,3.59,3.59,0,0,1,3.27-.88.34.34,0,0,1,.24.43v0a.37.37,0,0,1-.45.25h0a3,3,0,0,0-2.55.73A.4.4,0,0,1,259.68,165.28Z" transform="translate(-129.02 -74.06)"/><path class="cls-19" d="M294.07,198.31l-3.37-1.22-3,3.11,8,14.63C294.93,207.86,294.32,201.72,294.07,198.31Z" transform="translate(-129.02 -74.06)"/><path class="cls-17" d="M302.26,234.94l-2.14,4.79s-5,2.48-5.64,4.18-3.35,5.52-.31,6.45a6.36,6.36,0,0,0,7.54-2.66c1.58-2.56,2.2-4.16,2.12-5.37l3.43-6.16Z" transform="translate(-129.02 -74.06)"/><path class="cls-6" d="M266.08,153.26c-2.4.82-10.33,4.91-5.22,9.71,0,0,5.49-2,9.15,0,0,0-.61-3.84,2.17-4.59,0,0-3,5,1.8,8.5s2,6.41,2,6.41,2,.39,2.83-2.91c0,0,1.73,2.6,2.06,2.05C294.26,150,272.71,151,266.08,153.26Z" transform="translate(-129.02 -74.06)"/><path class="cls-17" d="M282.75,171.85a5.92,5.92,0,0,1-2.81,3.25c-1.75.88-2.91-.59-2.67-2.45.23-1.67,1.41-4.15,3.28-4.29a2.35,2.35,0,0,1,2.44,2.41A2.54,2.54,0,0,1,282.75,171.85Z" transform="translate(-129.02 -74.06)"/><path class="cls-1" d="M286.38,188.11s8.29.07,20.05,19.8,0,31.09,0,31.09l-5.33-3.5s3.56-9.31,1.93-13.8S294.16,208,294.16,208,276.48,189.42,286.38,188.11Z" transform="translate(-129.02 -74.06)"/><g class="cls-18"><path d="M286.38,188.11s8.29.07,20.05,19.8,0,31.09,0,31.09l-5.33-3.5s3.56-9.31,1.93-13.8S294.16,208,294.16,208,276.48,189.42,286.38,188.11Z" transform="translate(-129.02 -74.06)"/></g></g><g id="Character_1" data-name="Character 1"><polygon class="cls-21" points="70.73 130.44 72.41 126.51 76.22 127.59 73.86 132.88 70.73 130.44"/><path class="cls-21" d="M204.18,202.56s2.45-.89,2.91-1.95,1.09-8.27.35-8.93-5,.46-5.67,1.78-.87,7.39-.61,8Z" transform="translate(-129.02 -74.06)"/><path class="cls-6" d="M160.19,157.46s5-6.43,13.94-3.14,9.8,16.84,8.68,23.82-2.16,18.1-.71,19.22c0,0-6.94,1.89-11.25-1.13s-4.1-15.57-4.1-15.57l1.7-6.5Z" transform="translate(-129.02 -74.06)"/><polygon class="cls-22" points="45.77 319.81 45.54 333.19 52.58 332.77 53.45 320.64 45.77 319.81"/><path class="cls-6" d="M182.87,406l-8.89-.16a.71.71,0,0,0-.71.54l-1.74,7.21a1.19,1.19,0,0,0,.87,1.44l.25,0c3.2,0,6.06-.13,10-.05,4.71.09,3.5.63,9,.81,3.33.1,4-3.68,2.6-3.89-6.46-.93-7.1-2.9-9.55-5.26A2.83,2.83,0,0,0,182.87,406Z" transform="translate(-129.02 -74.06)"/><polygon class="cls-23" points="45.74 321.92 45.65 326.93 52.98 327.17 53.27 323.14 45.74 321.92"/><polygon class="cls-22" points="14.35 317.45 12.61 330.73 19.66 331.1 21.88 319.15 14.35 317.45"/><path class="cls-6" d="M150,404.45l-8.82-1.15a.7.7,0,0,0-.76.46l-2.54,7a1.2,1.2,0,0,0,.7,1.54,1,1,0,0,0,.25.06c3.18.36,6,.56,10,1.08,4.67.62,3.41,1,8.89,1.82,3.3.48,4.4-3.2,3-3.57-6.31-1.65-6.72-3.68-8.9-6.3A2.86,2.86,0,0,0,150,404.45Z" transform="translate(-129.02 -74.06)"/><polygon class="cls-23" points="14.08 319.55 13.42 324.52 20.68 325.57 21.42 321.61 14.08 319.55"/><path class="cls-6" d="M184.38,242.77s7.75,62.85,6.2,75.25-7.23,81.11-7.23,81.11h-9.82s-3.44-59.24,0-82.48c0,0-9.13-53.39-8.09-66.82S183.77,238.31,184.38,242.77Z" transform="translate(-129.02 -74.06)"/><path class="cls-14" d="M172.07,307.78c2.17-21-2.39-44.86-2.39-44.86l-3.14,5.54C168,281.71,170.49,298,172.07,307.78Z" transform="translate(-129.02 -74.06)"/><path class="cls-6" d="M170.39,272c0,18.64-.18,40.88-1.81,47.57-3,12.13-17.51,77.71-17.51,77.71l-9.75-1.13s4.4-57.33,10.49-80c0,0-1.29-21.46-1.42-41.28,0,0-5.85-16,1.58-36,0,0,16.58-4.7,21.85,2C173.82,240.77,170.38,264,170.39,272Z" transform="translate(-129.02 -74.06)"/><path class="cls-1" d="M178,194.5s6.89.58,10.67,12.53,2.81,10.16,2.81,10.16l8-14.38,5.14,2.53s-7.83,24.38-12.36,28.73-11.36-5-11.62-6.68S179,205.22,179,205.22Z" transform="translate(-129.02 -74.06)"/><path class="cls-7" d="M178,194.5s6.89.58,10.67,12.53,2.81,10.16,2.81,10.16l8-14.38,5.14,2.53s-7.83,24.38-12.36,28.73-11.36-5-11.62-6.68S179,205.22,179,205.22Z" transform="translate(-129.02 -74.06)"/><path class="cls-6" d="M160.19,158s-6-1.44-7.56,13.47c-1.77,16.66,3.46,27.8,13.51,27.7,0,0-1.59-12.85-.8-16.73s-1.53-20.68-1.53-20.68Z" transform="translate(-129.02 -74.06)"/><path class="cls-1" d="M185,250l-35.74-1.33c.14-9.16,2.64-31.49,1.79-36.11-.45-2.47-.95-5.12-1.52-8-.43-2.16-.89-4.46-1.41-6.89a74.81,74.81,0,0,1,12.66-2.84A77.76,77.76,0,0,1,174.3,194a24.37,24.37,0,0,1,2.87.32c3.41.58,6.14,3.6,7,7.66.4,1.79.82,4,1.18,6.57C186.35,215.37,188,223.84,185,250Z" transform="translate(-129.02 -74.06)"/><g class="cls-24"><path d="M185,250l-35.74-1.33c.14-9.16,2.64-31.49,1.79-36.11-.45-2.47-.95-5.12-1.52-8-.43-2.16-.89-4.46-1.41-6.89a74.81,74.81,0,0,1,12.66-2.84A77.76,77.76,0,0,1,174.3,194a24.37,24.37,0,0,1,2.87.32c3.41.58,6.14,3.6,7,7.66.4,1.79.82,4,1.18,6.57C186.35,215.37,188,223.84,185,250Z" transform="translate(-129.02 -74.06)"/></g><path class="cls-21" d="M171.38,199.13c-7.3-1.44-9.3-4.73-9.3-4.73,5-4.1,1.61-12,1.61-12l8.75,2.25a27.28,27.28,0,0,0-.6,3.71c-.43,5.38,2,5.6,2,5.6C175.2,197,171.38,199.13,171.38,199.13Z" transform="translate(-129.02 -74.06)"/><path class="cls-9" d="M172.44,184.65a27.28,27.28,0,0,0-.6,3.71c-6-.4-8.15-6-8.15-6Z" transform="translate(-129.02 -74.06)"/><path class="cls-21" d="M169.22,159.52c7.74.1,10.17,4.28,10.64,12.26.58,10-1.72,17-11.37,14.77C155.39,183.49,156.37,159.36,169.22,159.52Z" transform="translate(-129.02 -74.06)"/><path class="cls-25" d="M174.3,171.28a16,16,0,0,0,2.21,3.24,2.14,2.14,0,0,1-2,.85Z" transform="translate(-129.02 -74.06)"/><path class="cls-26" d="M170.12,166a4,4,0,0,0-3.37,1.13" transform="translate(-129.02 -74.06)"/><path class="cls-26" d="M175.4,165.56a3.61,3.61,0,0,1,3.08.68" transform="translate(-129.02 -74.06)"/><path class="cls-6" d="M160.59,172.46s5.59-5.6,5.11-10.51c0,0,13.52-6.79,14.08,8.79,0,0,1.68-13.8-11.62-14.28s-13.49,19-6.7,24.86C161.46,181.32,158.31,176.4,160.59,172.46Z" transform="translate(-129.02 -74.06)"/><path class="cls-21" d="M161.84,174.1a3.4,3.4,0,0,0-3.62-3.14c-2.4.23-3.6,5.13,2.34,6.39C161.42,177.54,161.91,176.71,161.84,174.1Z" transform="translate(-129.02 -74.06)"/><path class="cls-6" d="M176.74,178a19.91,19.91,0,0,0,.07,2.84l-.48.13c-2.19.56-3.4.09-4.06-.59a2.86,2.86,0,0,1-.68-1.21,2.55,2.55,0,0,1-.13-.78,10.5,10.5,0,0,0,4.53-.21C176.45,178.05,176.74,178,176.74,178Z" transform="translate(-129.02 -74.06)"/><path class="cls-3" d="M176,178.14V179c-1.86.52-3.56.61-4.37.15a3.08,3.08,0,0,1-.15-.78A10.3,10.3,0,0,0,176,178.14Z" transform="translate(-129.02 -74.06)"/><path class="cls-25" d="M176.33,180.93c-2.19.56-3.4.09-4.06-.59a6.93,6.93,0,0,1,2.55-.14A2.69,2.69,0,0,1,176.33,180.93Z" transform="translate(-129.02 -74.06)"/><path class="cls-27" d="M178.72,169.53a1.57,1.57,0,0,0-2.46.44" transform="translate(-129.02 -74.06)"/><path class="cls-27" d="M172.11,170.15a2.43,2.43,0,0,0-3.8.8" transform="translate(-129.02 -74.06)"/><path class="cls-6" d="M163.81,161.23s8.39,3.61,14.49,2.52-5.26-6.33-5.26-6.33l-5.81-.39Z" transform="translate(-129.02 -74.06)"/><path class="cls-6" d="M165.85,160.51a3.07,3.07,0,0,1,.36.89,8.33,8.33,0,0,1,.17.84,9.35,9.35,0,0,1,.08,1.67,13.47,13.47,0,0,1-.54,3.23,18.85,18.85,0,0,1-1.21,3c-.24.48-.52.94-.78,1.42l-.86,1.36.77-1.42c.22-.48.47-1,.67-1.45a18.25,18.25,0,0,0,1-3,12.68,12.68,0,0,0,.32-3.12,9.81,9.81,0,0,0-.18-1.54c-.06-.25-.12-.5-.2-.73a3.15,3.15,0,0,0-.26-.59Z" transform="translate(-129.02 -74.06)"/><path class="cls-6" d="M165.06,160.65c.36.28.55.5.82.74s.5.46.76.68a14.63,14.63,0,0,0,1.63,1.21,9.38,9.38,0,0,0,3.8,1.46,9.64,9.64,0,0,1-4-1.08,16.67,16.67,0,0,1-1.82-1.07c-.29-.2-.57-.41-.85-.62s-.58-.45-.78-.57Z" transform="translate(-129.02 -74.06)"/><path class="cls-21" d="M217.58,230s1.58-2.07,2.74-2.2,10,1.22,10.46,2.12-3.77,4.84-5.23,5.1-6.82-.42-7.29-.84Z" transform="translate(-129.02 -74.06)"/><path class="cls-21" d="M221.39,231.22s1.9-1.16,1.63-2.19c-.2-.72,1.48.45,1.83-.21s-.75-2.06-.75-2.06c-1.29-.17-4.13.15-6.63,3.21Z" transform="translate(-129.02 -74.06)"/><path class="cls-21" d="M217.6,230l-5.51,1.87s.68,4.55,1,4.43l6.92-2.79Z" transform="translate(-129.02 -74.06)"/><path class="cls-1" d="M148.47,197.5s-4.66,2.12-3.51,9.39c1.85,11.8,32,36.48,37.77,36.79s33.41-6.76,33.46-7.23-1.68-6.44-1.68-6.44-27.09,2.77-31,1S160,196.63,148.47,197.5Z" transform="translate(-129.02 -74.06)"/><path class="cls-7" d="M148.47,197.5s-4.66,2.12-3.51,9.39c1.85,11.8,32,36.48,37.77,36.79s33.41-6.76,33.46-7.23-1.68-6.44-1.68-6.44-27.09,2.77-31,1S160,196.63,148.47,197.5Z" transform="translate(-129.02 -74.06)"/></g></svg>